<svg width="105" height="56" viewBox="0 0 105 56" fill="none" xmlns="http://www.w3.org/2000/svg">
<rect width="105" height="56" fill="#EF3122"/>
<path d="M63.927 17.7362V18.646H71.5734C72.0832 18.646 72.8478 18.646 73.3499 19.1664C73.8519 19.6868 73.8596 20.4673 73.8596 20.9798V28.7854C73.8596 29.3057 73.8596 30.0863 73.3499 30.5988C72.8401 31.1191 72.0755 31.1191 71.5734 31.1191H67.8815C67.2451 31.1191 66.4156 31.1191 66.1051 30.4032C65.7869 29.6873 66.2324 29.0377 66.6149 28.511L71.5889 21.7462H63.9425L60.8839 25.9091C60.3711 26.6061 59.9277 27.2101 59.9277 27.9906C59.9277 28.7712 60.3402 29.3325 60.8839 30.0721L61.6486 31.1128C62.4132 32.1536 63.1778 33.1943 64.1974 33.7147C65.2169 34.2351 66.4218 34.2351 68.0901 34.2351H71.3958C73.3112 34.2351 76.169 34.2351 78.0845 32.2797C79.9999 30.3244 79.9999 27.4702 79.9999 26.4295V23.3073C79.9999 22.2666 79.9999 19.4124 78.0845 17.4571C76.169 15.5017 73.3112 15.5017 71.3958 15.5017L66.1128 15.5C65.6031 15.4998 64.9666 15.5 64.46 16.0204C63.9502 16.5407 63.9502 17.1904 63.9502 17.7076" fill="white"/>
<path d="M54.8131 21.7729H62.3823L53.2684 34.2934H45.6992L54.8131 21.7729Z" fill="white"/>
<path d="M25 23.9806C25 23.4602 25 22.8105 25.5098 22.2933C26.0195 21.7761 26.6559 21.7729 27.1626 21.7729H39.9684C41.6213 21.7729 42.8416 21.7729 43.8611 22.2933C44.8806 22.8137 45.6376 23.8544 46.4099 24.8952L47.1746 25.9359C47.7168 26.6739 48.1307 27.2368 48.1307 28.0174C48.1307 28.7979 47.6874 29.4019 47.1746 30.0989L44.116 34.2618H36.4696L41.4436 27.497C41.8252 26.9766 42.2716 26.327 41.9534 25.6048C41.6352 24.8889 40.8072 24.8889 40.1769 24.8889H34.1834V40.5H28.0663V24.8889H25.0077V23.9774" fill="white"/>
</svg>
